<?xml version="1.0" encoding="UTF-8"?>
<!DOCTYPE svg PUBLIC "-//W3C//DTD SVG 1.1//EN" "http://www.w3.org/Graphics/SVG/1.1/DTD/svg11.dtd">
<svg xmlns="http://www.w3.org/2000/svg" version="1.1" width="512px" height="512px" style="shape-rendering:geometricPrecision; text-rendering:geometricPrecision; image-rendering:optimizeQuality; fill-rule:evenodd; clip-rule:evenodd" xmlns:xlink="http://www.w3.org/1999/xlink">
<g><path style="opacity:0.998" fill="#03afee" d="M 249.5,11.5 C 249.5,50.8333 249.5,90.1667 249.5,129.5C 238.833,129.5 228.167,129.5 217.5,129.5C 217.173,90.7607 217.506,52.0941 218.5,13.5C 228.782,12.1282 239.115,11.4615 249.5,11.5 Z"/></g>
<g><path style="opacity:0.998" fill="#00abeb" d="M 249.5,11.5 C 270.268,10.5437 290.601,12.5437 310.5,17.5C 310.5,54.8333 310.5,92.1667 310.5,129.5C 290.167,129.5 269.833,129.5 249.5,129.5C 249.5,90.1667 249.5,50.8333 249.5,11.5 Z"/></g>
<g><path style="opacity:0.997" fill="#09b2ef" d="M 218.5,13.5 C 217.506,52.0941 217.173,90.7607 217.5,129.5C 205.833,129.5 194.167,129.5 182.5,129.5C 182.5,93.5 182.5,57.5 182.5,21.5C 194.361,18.2015 206.361,15.5348 218.5,13.5 Z"/></g>
<g><path style="opacity:0.997" fill="#00a4e6" d="M 310.5,17.5 C 331.815,21.5016 351.815,28.835 370.5,39.5C 370.832,80.0034 370.499,120.337 369.5,160.5C 359.5,150.833 349.5,141.167 339.5,131.5C 339.5,131.167 339.5,130.833 339.5,130.5C 330.014,129.506 320.348,129.173 310.5,129.5C 310.5,92.1667 310.5,54.8333 310.5,17.5 Z"/></g>
<g><path style="opacity:0.999" fill="#19b6ef" d="M 182.5,21.5 C 182.5,57.5 182.5,93.5 182.5,129.5C 194.167,129.5 205.833,129.5 217.5,129.5C 228.167,129.5 238.833,129.5 249.5,129.5C 269.833,129.5 290.167,129.5 310.5,129.5C 320.348,129.173 330.014,129.506 339.5,130.5C 339.167,130.5 338.833,130.5 338.5,130.5C 283.167,130.5 227.833,130.5 172.5,130.5C 172.5,217.833 172.5,305.167 172.5,392.5C 196.5,392.5 220.5,392.5 244.5,392.5C 239.36,393.488 234.026,393.821 228.5,393.5C 210.164,393.333 191.83,393.5 173.5,394C 176.704,397.036 179.704,400.203 182.5,403.5C 182.5,436.167 182.5,468.833 182.5,501.5C 170.495,497.664 158.829,492.997 147.5,487.5C 147.5,336.833 147.5,186.167 147.5,35.5C 158.848,30.0504 170.515,25.3837 182.5,21.5 Z"/></g>
<g><path style="opacity:0.998" fill="#15b8f0" d="M 147.5,35.5 C 147.5,186.167 147.5,336.833 147.5,487.5C 134.997,481.754 123.33,474.754 112.5,466.5C 113.5,329.668 113.833,192.668 113.5,55.5C 124.139,47.8398 135.473,41.1731 147.5,35.5 Z"/></g>
<g><path style="opacity:0.997" fill="#009fe2" d="M 370.5,39.5 C 393.492,50.4945 413.825,65.1611 431.5,83.5C 430.833,129.167 430.167,174.833 429.5,220.5C 421.5,212.833 413.5,205.167 405.5,197.5C 400.833,192.167 395.833,187.167 390.5,182.5C 383.5,175.167 376.5,167.833 369.5,160.5C 370.499,120.337 370.832,80.0034 370.5,39.5 Z"/></g>
<g><path style="opacity:0.999" fill="#19bbf1" d="M 113.5,55.5 C 113.833,192.668 113.5,329.668 112.5,466.5C 108.608,464.938 105.275,462.605 102.5,459.5C 102.503,327.805 102.503,195.805 102.5,63.5C 105.597,60.1116 109.264,57.4449 113.5,55.5 Z"/></g>
<g><path style="opacity:0.998" fill="#1cbcf1" d="M 102.5,63.5 C 102.503,195.805 102.503,327.805 102.5,459.5C 90.9463,451.618 80.613,442.284 71.5,431.5C 72.4995,318.001 72.8328,204.335 72.5,90.5C 81.3267,80.1047 91.3267,71.1047 102.5,63.5 Z"/></g>
<g><path style="opacity:0.994" fill="#0099dd" d="M 431.5,83.5 C 488.937,142.14 512.937,212.473 503.5,294.5C 498.5,289.833 493.5,285.167 488.5,280.5C 481.5,272.833 474.167,265.5 466.5,258.5C 462.5,253.833 458.167,249.5 453.5,245.5C 445.833,237.167 437.833,229.167 429.5,221.5C 429.5,221.167 429.5,220.833 429.5,220.5C 430.167,174.833 430.833,129.167 431.5,83.5 Z"/></g>
<g><path style="opacity:0.997" fill="#22bff2" d="M 72.5,90.5 C 72.8328,204.335 72.4995,318.001 71.5,431.5C 57.6275,416.76 45.9608,400.427 36.5,382.5C 37.8333,301.5 37.8333,220.5 36.5,139.5C 46.314,121.529 58.314,105.196 72.5,90.5 Z"/></g>
<g><path style="opacity:1" fill="#fefefe" d="M 338.5,130.5 C 338.5,152.167 338.5,173.833 338.5,195.5C 307.167,195.5 275.833,195.5 244.5,195.5C 244.171,209.677 244.504,223.677 245.5,237.5C 254.167,237.5 262.833,237.5 271.5,237.5C 285.5,237.5 299.5,237.5 313.5,237.5C 318.833,237.5 324.167,237.5 329.5,237.5C 329.5,242.167 329.5,246.833 329.5,251.5C 329.5,263.5 329.5,275.5 329.5,287.5C 329.5,289.167 329.5,290.833 329.5,292.5C 329.5,295.167 329.5,297.833 329.5,300.5C 301.167,300.5 272.833,300.5 244.5,300.5C 244.5,331.167 244.5,361.833 244.5,392.5C 220.5,392.5 196.5,392.5 172.5,392.5C 172.5,305.167 172.5,217.833 172.5,130.5C 227.833,130.5 283.167,130.5 338.5,130.5 Z"/></g>
<g><path style="opacity:0.988" fill="#27c2f2" d="M 36.5,139.5 C 37.8333,220.5 37.8333,301.5 36.5,382.5C 10.2069,334.862 0.373548,283.862 7,229.5C 11.137,197.59 20.9703,167.59 36.5,139.5 Z"/></g>
<g><path style="opacity:1" fill="#0075a3" d="M 339.5,131.5 C 349.5,141.167 359.5,150.833 369.5,160.5C 376.5,167.833 383.5,175.167 390.5,182.5C 388.104,187.219 386.604,187.219 386,182.5C 382.333,186.167 378.667,189.833 375,193.5C 374.667,192.5 374.333,191.5 374,190.5C 370,194.5 366,198.5 362,202.5C 361.667,201.167 361.333,199.833 361,198.5C 353,206.5 345,214.5 337,222.5C 336.667,221.5 336.333,220.5 336,219.5C 332.333,223.167 328.667,226.833 325,230.5C 324.667,229.167 324.333,227.833 324,226.5C 320.296,230.036 316.796,233.702 313.5,237.5C 299.5,237.5 285.5,237.5 271.5,237.5C 274.129,234.369 276.962,231.369 280,228.5C 280.333,229.5 280.667,230.5 281,231.5C 284,228.5 287,225.5 290,222.5C 290.333,223.833 290.667,225.167 291,226.5C 301.036,216.632 310.869,206.632 320.5,196.5C 326.833,196.5 333.167,196.5 339.5,196.5C 339.5,174.833 339.5,153.167 339.5,131.5 Z"/></g>
<g><path style="opacity:1" fill="#007aab" d="M 390.5,182.5 C 395.833,187.167 400.833,192.167 405.5,197.5C 399.929,204.577 393.762,211.244 387,217.5C 386.667,216.167 386.333,214.833 386,213.5C 381,218.5 376,223.5 371,228.5C 370.667,227.5 370.333,226.5 370,225.5C 367,228.5 364,231.5 361,234.5C 360.667,233.167 360.333,231.833 360,230.5C 356.667,233.833 353.333,237.167 350,240.5C 349.667,239.5 349.333,238.5 349,237.5C 345,241.5 341,245.5 337,249.5C 336.667,248.167 336.333,246.833 336,245.5C 333.963,247.706 331.797,249.706 329.5,251.5C 329.5,246.833 329.5,242.167 329.5,237.5C 324.167,237.5 318.833,237.5 313.5,237.5C 316.796,233.702 320.296,230.036 324,226.5C 324.333,227.833 324.667,229.167 325,230.5C 328.667,226.833 332.333,223.167 336,219.5C 336.333,220.5 336.667,221.5 337,222.5C 345,214.5 353,206.5 361,198.5C 361.333,199.833 361.667,201.167 362,202.5C 366,198.5 370,194.5 374,190.5C 374.333,191.5 374.667,192.5 375,193.5C 378.667,189.833 382.333,186.167 386,182.5C 386.604,187.219 388.104,187.219 390.5,182.5 Z"/></g>
<g><path style="opacity:1" fill="#559ebc" d="M 338.5,130.5 C 338.833,130.5 339.167,130.5 339.5,130.5C 339.5,130.833 339.5,131.167 339.5,131.5C 339.5,153.167 339.5,174.833 339.5,196.5C 333.167,196.5 326.833,196.5 320.5,196.5C 295.5,196.5 270.5,196.5 245.5,196.5C 245.5,210.167 245.5,223.833 245.5,237.5C 244.504,223.677 244.171,209.677 244.5,195.5C 275.833,195.5 307.167,195.5 338.5,195.5C 338.5,173.833 338.5,152.167 338.5,130.5 Z"/></g>
<g><path style="opacity:1" fill="#00739e" d="M 320.5,196.5 C 310.869,206.632 301.036,216.632 291,226.5C 290.667,225.167 290.333,223.833 290,222.5C 287,225.5 284,228.5 281,231.5C 280.667,230.5 280.333,229.5 280,228.5C 276.962,231.369 274.129,234.369 271.5,237.5C 262.833,237.5 254.167,237.5 245.5,237.5C 245.5,223.833 245.5,210.167 245.5,196.5C 270.5,196.5 295.5,196.5 320.5,196.5 Z"/></g>
<g><path style="opacity:1" fill="#007eb2" d="M 405.5,197.5 C 413.5,205.167 421.5,212.833 429.5,220.5C 429.5,220.833 429.5,221.167 429.5,221.5C 428.207,223.296 426.707,224.963 425,226.5C 424.667,225.167 424.333,223.833 424,222.5C 420,226.5 416,230.5 412,234.5C 411.667,232.5 411.333,230.5 411,228.5C 407.333,232.167 403.667,235.833 400,239.5C 399.667,238.5 399.333,237.5 399,236.5C 395,240.5 391,244.5 387,248.5C 386.667,247.5 386.333,246.5 386,245.5C 378,253.5 370,261.5 362,269.5C 361.667,268.167 361.333,266.833 361,265.5C 357.333,269.167 353.667,272.833 350,276.5C 349.667,275.5 349.333,274.5 349,273.5C 345,277.5 341,281.5 337,285.5C 336.667,284.167 336.333,282.833 336,281.5C 333.963,283.706 331.797,285.706 329.5,287.5C 329.5,275.5 329.5,263.5 329.5,251.5C 331.797,249.706 333.963,247.706 336,245.5C 336.333,246.833 336.667,248.167 337,249.5C 341,245.5 345,241.5 349,237.5C 349.333,238.5 349.667,239.5 350,240.5C 353.333,237.167 356.667,233.833 360,230.5C 360.333,231.833 360.667,233.167 361,234.5C 364,231.5 367,228.5 370,225.5C 370.333,226.5 370.667,227.5 371,228.5C 376,223.5 381,218.5 386,213.5C 386.333,214.833 386.667,216.167 387,217.5C 393.762,211.244 399.929,204.577 405.5,197.5 Z"/></g>
<g><path style="opacity:1" fill="#0081b8" d="M 429.5,221.5 C 437.833,229.167 445.833,237.167 453.5,245.5C 451.776,250.448 450.61,250.448 450,245.5C 447,248.5 444,251.5 441,254.5C 440.667,251.833 440.333,249.167 440,246.5C 437,249.5 434,252.5 431,255.5C 430.667,254.5 430.333,253.5 430,252.5C 427,255.5 424,258.5 421,261.5C 420.667,260.167 420.333,258.833 420,257.5C 417,260.5 414,263.5 411,266.5C 410.517,265.552 410.351,264.552 410.5,263.5C 410.66,261.801 410.494,260.134 410,258.5C 407,261.5 404,264.5 401,267.5C 400.667,266.5 400.333,265.5 400,264.5C 397,267.5 394,270.5 391,273.5C 390.667,272.167 390.333,270.833 390,269.5C 387,272.5 384,275.5 381,278.5C 380.667,276.167 380.333,273.833 380,271.5C 377,274.5 374,277.5 371,280.5C 370.667,279.167 370.333,277.833 370,276.5C 367,279.5 364,282.5 361,285.5C 360.667,283.5 360.333,281.5 360,279.5C 357,282.5 354,285.5 351,288.5C 350.667,287.5 350.333,286.5 350,285.5C 347,288.5 344,291.5 341,294.5C 340.667,293.5 340.333,292.5 340,291.5C 337,294.5 334,297.5 331,300.5C 330.817,297.635 330.317,294.969 329.5,292.5C 329.5,290.833 329.5,289.167 329.5,287.5C 331.797,285.706 333.963,283.706 336,281.5C 336.333,282.833 336.667,284.167 337,285.5C 341,281.5 345,277.5 349,273.5C 349.333,274.5 349.667,275.5 350,276.5C 353.667,272.833 357.333,269.167 361,265.5C 361.333,266.833 361.667,268.167 362,269.5C 370,261.5 378,253.5 386,245.5C 386.333,246.5 386.667,247.5 387,248.5C 391,244.5 395,240.5 399,236.5C 399.333,237.5 399.667,238.5 400,239.5C 403.667,235.833 407.333,232.167 411,228.5C 411.333,230.5 411.667,232.5 412,234.5C 416,230.5 420,226.5 424,222.5C 424.333,223.833 424.667,225.167 425,226.5C 426.707,224.963 428.207,223.296 429.5,221.5 Z"/></g>
<g><path style="opacity:1" fill="#0086be" d="M 453.5,245.5 C 458.167,249.5 462.5,253.833 466.5,258.5C 465.627,260.886 464.127,262.886 462,264.5C 461.667,263.5 461.333,262.5 461,261.5C 457.333,265.167 453.667,268.833 450,272.5C 449.667,271.167 449.333,269.833 449,268.5C 445,272.5 441,276.5 437,280.5C 436.667,279.5 436.333,278.5 436,277.5C 432.333,281.167 428.667,284.833 425,288.5C 424.667,287.5 424.333,286.5 424,285.5C 420,289.5 416,293.5 412,297.5C 411.667,296.167 411.333,294.833 411,293.5C 407.333,297.167 403.667,300.833 400,304.5C 399.667,303.5 399.333,302.5 399,301.5C 395.962,304.369 393.129,307.369 390.5,310.5C 387.203,313.296 384.036,316.296 381,319.5C 380.667,318.167 380.333,316.833 380,315.5C 377,318.5 374,321.5 371,324.5C 370.667,323.5 370.333,322.5 370,321.5C 367,324.5 364,327.5 361,330.5C 360.51,329.207 360.343,327.873 360.5,326.5C 360.657,325.127 360.49,323.793 360,322.5C 357,325.5 354,328.5 351,331.5C 350.667,330.167 350.333,328.833 350,327.5C 347,330.5 344,333.5 341,336.5C 340.667,335.5 340.333,334.5 340,333.5C 337,336.5 334,339.5 331,342.5C 330.667,339.833 330.333,337.167 330,334.5C 327,337.5 324,340.5 321,343.5C 320.667,342.167 320.333,340.833 320,339.5C 317,342.5 314,345.5 311,348.5C 310.667,347.5 310.333,346.5 310,345.5C 307,348.5 304,351.5 301,354.5C 300.667,353.5 300.333,352.5 300,351.5C 297,354.5 294,357.5 291,360.5C 290.667,359.167 290.333,357.833 290,356.5C 287,359.5 284,362.5 281,365.5C 280.667,362.167 280.333,358.833 280,355.5C 277,358.5 274,361.5 271,364.5C 270.667,363.5 270.333,362.5 270,361.5C 267,364.5 264,367.5 261,370.5C 260.667,369.167 260.333,367.833 260,366.5C 256.667,369.833 253.333,373.167 250,376.5C 249.517,375.552 249.351,374.552 249.5,373.5C 253.13,369.369 256.963,365.369 261,361.5C 261.333,362.5 261.667,363.5 262,364.5C 266,360.5 270,356.5 274,352.5C 274.333,353.833 274.667,355.167 275,356.5C 278.667,352.833 282.333,349.167 286,345.5C 286.333,346.5 286.667,347.5 287,348.5C 291,344.5 295,340.5 299,336.5C 299.333,337.5 299.667,338.5 300,339.5C 303.667,335.833 307.333,332.167 311,328.5C 311.333,330.5 311.667,332.5 312,334.5C 316,330.5 320,326.5 324,322.5C 324.333,323.833 324.667,325.167 325,326.5C 333,318.5 341,310.5 349,302.5C 349.333,303.5 349.667,304.5 350,305.5C 353.667,301.833 357.333,298.167 361,294.5C 361.333,295.5 361.667,296.5 362,297.5C 366,293.5 370,289.5 374,285.5C 374.333,286.833 374.667,288.167 375,289.5C 378.667,285.833 382.333,282.167 386,278.5C 386.333,279.5 386.667,280.5 387,281.5C 391,277.5 395,273.5 399,269.5C 399.333,270.833 399.667,272.167 400,273.5C 403.369,269.963 406.869,266.629 410.5,263.5C 410.351,264.552 410.517,265.552 411,266.5C 414,263.5 417,260.5 420,257.5C 420.333,258.833 420.667,260.167 421,261.5C 424,258.5 427,255.5 430,252.5C 430.333,253.5 430.667,254.5 431,255.5C 434,252.5 437,249.5 440,246.5C 440.333,249.167 440.667,251.833 441,254.5C 444,251.5 447,248.5 450,245.5C 450.61,250.448 451.776,250.448 453.5,245.5 Z"/></g>
<g><path style="opacity:1" fill="#0085b9" d="M 410.5,263.5 C 406.869,266.629 403.369,269.963 400,273.5C 399.667,272.167 399.333,270.833 399,269.5C 395,273.5 391,277.5 387,281.5C 386.667,280.5 386.333,279.5 386,278.5C 382.333,282.167 378.667,285.833 375,289.5C 374.667,288.167 374.333,286.833 374,285.5C 370,289.5 366,293.5 362,297.5C 361.667,296.5 361.333,295.5 361,294.5C 357.333,298.167 353.667,301.833 350,305.5C 349.667,304.5 349.333,303.5 349,302.5C 341,310.5 333,318.5 325,326.5C 324.667,325.167 324.333,323.833 324,322.5C 320,326.5 316,330.5 312,334.5C 311.667,332.5 311.333,330.5 311,328.5C 307.333,332.167 303.667,335.833 300,339.5C 299.667,338.5 299.333,337.5 299,336.5C 295,340.5 291,344.5 287,348.5C 286.667,347.5 286.333,346.5 286,345.5C 282.333,349.167 278.667,352.833 275,356.5C 274.667,355.167 274.333,353.833 274,352.5C 270,356.5 266,360.5 262,364.5C 261.667,363.5 261.333,362.5 261,361.5C 256.963,365.369 253.13,369.369 249.5,373.5C 248.167,374.5 246.833,375.5 245.5,376.5C 245.5,367.5 245.5,358.5 245.5,349.5C 250.798,344.703 255.965,339.703 261,334.5C 261.333,335.5 261.667,336.5 262,337.5C 266,333.5 270,329.5 274,325.5C 274.333,326.833 274.667,328.167 275,329.5C 283,321.5 291,313.5 299,305.5C 299.333,306.5 299.667,307.5 300,308.5C 302.372,306.297 304.539,303.963 306.5,301.5C 314.352,301.825 322.018,301.492 329.5,300.5C 329.5,297.833 329.5,295.167 329.5,292.5C 330.317,294.969 330.817,297.635 331,300.5C 334,297.5 337,294.5 340,291.5C 340.333,292.5 340.667,293.5 341,294.5C 344,291.5 347,288.5 350,285.5C 350.333,286.5 350.667,287.5 351,288.5C 354,285.5 357,282.5 360,279.5C 360.333,281.5 360.667,283.5 361,285.5C 364,282.5 367,279.5 370,276.5C 370.333,277.833 370.667,279.167 371,280.5C 374,277.5 377,274.5 380,271.5C 380.333,273.833 380.667,276.167 381,278.5C 384,275.5 387,272.5 390,269.5C 390.333,270.833 390.667,272.167 391,273.5C 394,270.5 397,267.5 400,264.5C 400.333,265.5 400.667,266.5 401,267.5C 404,264.5 407,261.5 410,258.5C 410.494,260.134 410.66,261.801 410.5,263.5 Z"/></g>
<g><path style="opacity:1" fill="#0088c4" d="M 466.5,258.5 C 474.167,265.5 481.5,272.833 488.5,280.5C 486.205,283.297 483.705,285.964 481,288.5C 480.667,287.167 480.333,285.833 480,284.5C 478.333,286.167 476.667,287.833 475,289.5C 474.667,288.5 474.333,287.5 474,286.5C 470,290.5 466,294.5 462,298.5C 461.809,296.292 461.309,294.292 460.5,292.5C 460.664,289.813 460.497,287.146 460,284.5C 457,287.5 454,290.5 451,293.5C 450.667,292.5 450.333,291.5 450,290.5C 447,293.5 444,296.5 441,299.5C 440.667,296.833 440.333,294.167 440,291.5C 437,294.5 434,297.5 431,300.5C 430.667,299.167 430.333,297.833 430,296.5C 427,299.5 424,302.5 421,305.5C 420.667,302.833 420.333,300.167 420,297.5C 417,300.5 414,303.5 411,306.5C 410.667,305.5 410.333,304.5 410,303.5C 407,306.5 404,309.5 401,312.5C 400.667,311.5 400.333,310.5 400,309.5C 397,312.5 394,315.5 391,318.5C 390.503,315.854 390.336,313.187 390.5,310.5C 393.129,307.369 395.962,304.369 399,301.5C 399.333,302.5 399.667,303.5 400,304.5C 403.667,300.833 407.333,297.167 411,293.5C 411.333,294.833 411.667,296.167 412,297.5C 416,293.5 420,289.5 424,285.5C 424.333,286.5 424.667,287.5 425,288.5C 428.667,284.833 432.333,281.167 436,277.5C 436.333,278.5 436.667,279.5 437,280.5C 441,276.5 445,272.5 449,268.5C 449.333,269.833 449.667,271.167 450,272.5C 453.667,268.833 457.333,265.167 461,261.5C 461.333,262.5 461.667,263.5 462,264.5C 464.127,262.886 465.627,260.886 466.5,258.5 Z"/></g>
<g><path style="opacity:1" fill="#008dcb" d="M 488.5,280.5 C 493.5,285.167 498.5,289.833 503.5,294.5C 502.836,303.481 501.17,312.147 498.5,320.5C 495.87,322.628 493.37,324.961 491,327.5C 490.667,326.167 490.333,324.833 490,323.5C 487,326.5 484,329.5 481,332.5C 480.667,329.833 480.333,327.167 480,324.5C 477,327.5 474,330.5 471,333.5C 470.667,332.5 470.333,331.5 470,330.5C 467,333.5 464,336.5 461,339.5C 460.667,336.833 460.333,334.167 460,331.5C 457,334.5 454,337.5 451,340.5C 450.667,339.5 450.333,338.5 450,337.5C 446.964,340.704 443.797,343.704 440.5,346.5C 440.664,343.813 440.497,341.146 440,338.5C 437,341.5 434,344.5 431,347.5C 430.667,346.167 430.333,344.833 430,343.5C 427,346.5 424,349.5 421,352.5C 420.667,349.833 420.333,347.167 420,344.5C 417,347.5 414,350.5 411,353.5C 410.667,352.5 410.333,351.5 410,350.5C 407,353.5 404,356.5 401,359.5C 400.667,356.167 400.333,352.833 400,349.5C 397,352.5 394,355.5 391,358.5C 390.667,357.167 390.333,355.833 390,354.5C 387,357.5 384,360.5 381,363.5C 380.667,360.833 380.333,358.167 380,355.5C 377,358.5 374,361.5 371,364.5C 370.667,363.5 370.333,362.5 370,361.5C 367,364.5 364,367.5 361,370.5C 360.667,369.167 360.333,367.833 360,366.5C 357,369.5 354,372.5 351,375.5C 350.503,372.854 350.336,370.187 350.5,367.5C 353.796,363.702 357.296,360.036 361,356.5C 361.333,357.833 361.667,359.167 362,360.5C 366,356.5 370,352.5 374,348.5C 374.333,349.5 374.667,350.5 375,351.5C 378.667,347.833 382.333,344.167 386,340.5C 386.333,341.833 386.667,343.167 387,344.5C 391,340.5 395,336.5 399,332.5C 399.333,333.5 399.667,334.5 400,335.5C 403.667,331.833 407.333,328.167 411,324.5C 411.333,325.833 411.667,327.167 412,328.5C 416,324.5 420,320.5 424,316.5C 424.333,317.5 424.667,318.5 425,319.5C 428.667,315.833 432.333,312.167 436,308.5C 436.333,309.833 436.667,311.167 437,312.5C 441,308.5 445,304.5 449,300.5C 449.333,301.5 449.667,302.5 450,303.5C 453.704,299.964 457.204,296.298 460.5,292.5C 461.309,294.292 461.809,296.292 462,298.5C 466,294.5 470,290.5 474,286.5C 474.333,287.5 474.667,288.5 475,289.5C 476.667,287.833 478.333,286.167 480,284.5C 480.333,285.833 480.667,287.167 481,288.5C 483.705,285.964 486.205,283.297 488.5,280.5 Z"/></g>
<g><path style="opacity:1" fill="#008cc4" d="M 460.5,292.5 C 457.204,296.298 453.704,299.964 450,303.5C 449.667,302.5 449.333,301.5 449,300.5C 445,304.5 441,308.5 437,312.5C 436.667,311.167 436.333,309.833 436,308.5C 432.333,312.167 428.667,315.833 425,319.5C 424.667,318.5 424.333,317.5 424,316.5C 420,320.5 416,324.5 412,328.5C 411.667,327.167 411.333,325.833 411,324.5C 407.333,328.167 403.667,331.833 400,335.5C 399.667,334.5 399.333,333.5 399,332.5C 395,336.5 391,340.5 387,344.5C 386.667,343.167 386.333,341.833 386,340.5C 382.333,344.167 378.667,347.833 375,351.5C 374.667,350.5 374.333,349.5 374,348.5C 370,352.5 366,356.5 362,360.5C 361.667,359.167 361.333,357.833 361,356.5C 357.296,360.036 353.796,363.702 350.5,367.5C 347.203,370.296 344.036,373.296 341,376.5C 340.667,375.5 340.333,374.5 340,373.5C 337,376.5 334,379.5 331,382.5C 330.667,381.5 330.333,380.5 330,379.5C 327,382.5 324,385.5 321,388.5C 320.667,385.833 320.333,383.167 320,380.5C 316.964,383.704 313.797,386.704 310.5,389.5C 310.657,388.127 310.49,386.793 310,385.5C 307,388.5 304,391.5 301,394.5C 300.667,393.5 300.333,392.5 300,391.5C 297,394.5 294,397.5 291,400.5C 290.667,397.833 290.333,395.167 290,392.5C 287,395.5 284,398.5 281,401.5C 280.667,400.167 280.333,398.833 280,397.5C 277,400.5 274,403.5 271,406.5C 270.667,405.5 270.333,404.5 270,403.5C 267,406.5 264,409.5 261,412.5C 260.667,411.167 260.333,409.833 260,408.5C 256.667,411.833 253.333,415.167 250,418.5C 249.667,417.5 249.333,416.5 249,415.5C 245.667,418.833 242.333,422.167 239,425.5C 238.503,422.854 238.336,420.187 238.5,417.5C 245.798,409.702 253.298,402.035 261,394.5C 261.333,395.5 261.667,396.5 262,397.5C 266,393.5 270,389.5 274,385.5C 274.333,386.833 274.667,388.167 275,389.5C 283,381.5 291,373.5 299,365.5C 299.333,366.5 299.667,367.5 300,368.5C 303.667,364.833 307.333,361.167 311,357.5C 311.333,358.833 311.667,360.167 312,361.5C 316,357.5 320,353.5 324,349.5C 324.333,350.5 324.667,351.5 325,352.5C 328.667,348.833 332.333,345.167 336,341.5C 336.333,342.833 336.667,344.167 337,345.5C 341,341.5 345,337.5 349,333.5C 349.333,334.5 349.667,335.5 350,336.5C 353.369,332.963 356.869,329.629 360.5,326.5C 360.343,327.873 360.51,329.207 361,330.5C 364,327.5 367,324.5 370,321.5C 370.333,322.5 370.667,323.5 371,324.5C 374,321.5 377,318.5 380,315.5C 380.333,316.833 380.667,318.167 381,319.5C 384.036,316.296 387.203,313.296 390.5,310.5C 390.336,313.187 390.503,315.854 391,318.5C 394,315.5 397,312.5 400,309.5C 400.333,310.5 400.667,311.5 401,312.5C 404,309.5 407,306.5 410,303.5C 410.333,304.5 410.667,305.5 411,306.5C 414,303.5 417,300.5 420,297.5C 420.333,300.167 420.667,302.833 421,305.5C 424,302.5 427,299.5 430,296.5C 430.333,297.833 430.667,299.167 431,300.5C 434,297.5 437,294.5 440,291.5C 440.333,294.167 440.667,296.833 441,299.5C 444,296.5 447,293.5 450,290.5C 450.333,291.5 450.667,292.5 451,293.5C 454,290.5 457,287.5 460,284.5C 460.497,287.146 460.664,289.813 460.5,292.5 Z"/></g>
<g><path style="opacity:1" fill="#0082b2" d="M 306.5,301.5 C 304.539,303.963 302.372,306.297 300,308.5C 299.667,307.5 299.333,306.5 299,305.5C 291,313.5 283,321.5 275,329.5C 274.667,328.167 274.333,326.833 274,325.5C 270,329.5 266,333.5 262,337.5C 261.667,336.5 261.333,335.5 261,334.5C 255.965,339.703 250.798,344.703 245.5,349.5C 245.5,333.5 245.5,317.5 245.5,301.5C 265.833,301.5 286.167,301.5 306.5,301.5 Z"/></g>
<g><path style="opacity:0.999" fill="#0092d1" d="M 498.5,320.5 C 496.982,329.388 494.649,338.054 491.5,346.5C 489.629,346.859 488.129,347.859 487,349.5C 486.667,348.167 486.333,346.833 486,345.5C 482.333,349.167 478.667,352.833 475,356.5C 474.667,355.5 474.333,354.5 474,353.5C 470,357.5 466,361.5 462,365.5C 461.667,364.167 461.333,362.833 461,361.5C 457.333,365.167 453.667,368.833 450,372.5C 449.667,369.833 449.333,367.167 449,364.5C 445,368.5 441,372.5 437,376.5C 436.667,375.5 436.333,374.5 436,373.5C 432.333,377.167 428.667,380.833 425,384.5C 424.667,383.167 424.333,381.833 424,380.5C 420,384.5 416,388.5 412,392.5C 411.841,390.657 411.341,389.991 410.5,390.5C 407.203,393.296 404.036,396.296 401,399.5C 400.667,398.167 400.333,396.833 400,395.5C 396.964,398.704 393.797,401.704 390.5,404.5C 390.663,402.143 390.497,399.81 390,397.5C 387,400.5 384,403.5 381,406.5C 380.667,405.167 380.333,403.833 380,402.5C 377,405.5 374,408.5 371,411.5C 370.667,408.833 370.333,406.167 370,403.5C 367,406.5 364,409.5 361,412.5C 360.667,411.5 360.333,410.5 360,409.5C 357,412.5 354,415.5 351,418.5C 350.667,417.167 350.333,415.833 350,414.5C 347,417.5 344,420.5 341,423.5C 340.667,420.167 340.333,416.833 340,413.5C 337,416.5 334,419.5 331,422.5C 330.667,421.5 330.333,420.5 330,419.5C 327,422.5 324,425.5 321,428.5C 320.667,425.833 320.333,423.167 320,420.5C 317,423.5 314,426.5 311,429.5C 310.51,428.207 310.343,426.873 310.5,425.5C 314.797,420.702 319.297,416.035 324,411.5C 324.333,412.833 324.667,414.167 325,415.5C 328.667,411.833 332.333,408.167 336,404.5C 336.333,405.5 336.667,406.5 337,407.5C 341,403.5 345,399.5 349,395.5C 349.333,396.833 349.667,398.167 350,399.5C 353.667,395.833 357.333,392.167 361,388.5C 361.333,389.5 361.667,390.5 362,391.5C 366,387.5 370,383.5 374,379.5C 374.333,381.5 374.667,383.5 375,385.5C 378.667,381.833 382.333,378.167 386,374.5C 386.333,375.5 386.667,376.5 387,377.5C 391,373.5 395,369.5 399,365.5C 399.333,366.833 399.667,368.167 400,369.5C 403.667,365.833 407.333,362.167 411,358.5C 411.333,361.167 411.667,363.833 412,366.5C 416,362.5 420,358.5 424,354.5C 424.333,355.5 424.667,356.5 425,357.5C 428.667,353.833 432.333,350.167 436,346.5C 436.604,351.219 438.104,351.219 440.5,346.5C 443.797,343.704 446.964,340.704 450,337.5C 450.333,338.5 450.667,339.5 451,340.5C 454,337.5 457,334.5 460,331.5C 460.333,334.167 460.667,336.833 461,339.5C 464,336.5 467,333.5 470,330.5C 470.333,331.5 470.667,332.5 471,333.5C 474,330.5 477,327.5 480,324.5C 480.333,327.167 480.667,329.833 481,332.5C 484,329.5 487,326.5 490,323.5C 490.333,324.833 490.667,326.167 491,327.5C 493.37,324.961 495.87,322.628 498.5,320.5 Z"/></g>
<g><path style="opacity:1" fill="#018bbf" d="M 360.5,326.5 C 356.869,329.629 353.369,332.963 350,336.5C 349.667,335.5 349.333,334.5 349,333.5C 345,337.5 341,341.5 337,345.5C 336.667,344.167 336.333,342.833 336,341.5C 332.333,345.167 328.667,348.833 325,352.5C 324.667,351.5 324.333,350.5 324,349.5C 320,353.5 316,357.5 312,361.5C 311.667,360.167 311.333,358.833 311,357.5C 307.333,361.167 303.667,364.833 300,368.5C 299.667,367.5 299.333,366.5 299,365.5C 291,373.5 283,381.5 275,389.5C 274.667,388.167 274.333,386.833 274,385.5C 270,389.5 266,393.5 262,397.5C 261.667,396.5 261.333,395.5 261,394.5C 253.298,402.035 245.798,409.702 238.5,417.5C 235.87,419.628 233.37,421.961 231,424.5C 230.667,423.5 230.333,422.5 230,421.5C 225.298,426.37 220.465,431.037 215.5,435.5C 212.167,432.833 209.167,429.833 206.5,426.5C 206.335,422.818 206.501,419.152 207,415.5C 214.369,408.298 221.536,400.965 228.5,393.5C 234.026,393.821 239.36,393.488 244.5,392.5C 245.488,387.36 245.821,382.026 245.5,376.5C 246.833,375.5 248.167,374.5 249.5,373.5C 249.351,374.552 249.517,375.552 250,376.5C 253.333,373.167 256.667,369.833 260,366.5C 260.333,367.833 260.667,369.167 261,370.5C 264,367.5 267,364.5 270,361.5C 270.333,362.5 270.667,363.5 271,364.5C 274,361.5 277,358.5 280,355.5C 280.333,358.833 280.667,362.167 281,365.5C 284,362.5 287,359.5 290,356.5C 290.333,357.833 290.667,359.167 291,360.5C 294,357.5 297,354.5 300,351.5C 300.333,352.5 300.667,353.5 301,354.5C 304,351.5 307,348.5 310,345.5C 310.333,346.5 310.667,347.5 311,348.5C 314,345.5 317,342.5 320,339.5C 320.333,340.833 320.667,342.167 321,343.5C 324,340.5 327,337.5 330,334.5C 330.333,337.167 330.667,339.833 331,342.5C 334,339.5 337,336.5 340,333.5C 340.333,334.5 340.667,335.5 341,336.5C 344,333.5 347,330.5 350,327.5C 350.333,328.833 350.667,330.167 351,331.5C 354,328.5 357,325.5 360,322.5C 360.49,323.793 360.657,325.127 360.5,326.5 Z"/></g>
<g><path style="opacity:1" fill="#0092cb" d="M 440.5,346.5 C 438.104,351.219 436.604,351.219 436,346.5C 432.333,350.167 428.667,353.833 425,357.5C 424.667,356.5 424.333,355.5 424,354.5C 420,358.5 416,362.5 412,366.5C 411.667,363.833 411.333,361.167 411,358.5C 407.333,362.167 403.667,365.833 400,369.5C 399.667,368.167 399.333,366.833 399,365.5C 395,369.5 391,373.5 387,377.5C 386.667,376.5 386.333,375.5 386,374.5C 382.333,378.167 378.667,381.833 375,385.5C 374.667,383.5 374.333,381.5 374,379.5C 370,383.5 366,387.5 362,391.5C 361.667,390.5 361.333,389.5 361,388.5C 357.333,392.167 353.667,395.833 350,399.5C 349.667,398.167 349.333,396.833 349,395.5C 345,399.5 341,403.5 337,407.5C 336.667,406.5 336.333,405.5 336,404.5C 332.333,408.167 328.667,411.833 325,415.5C 324.667,414.167 324.333,412.833 324,411.5C 319.297,416.035 314.797,420.702 310.5,425.5C 307.203,428.296 304.036,431.296 301,434.5C 300.667,433.5 300.333,432.5 300,431.5C 297,434.5 294,437.5 291,440.5C 290.667,437.833 290.333,435.167 290,432.5C 287,435.5 284,438.5 281,441.5C 280.667,440.167 280.333,438.833 280,437.5C 277,440.5 274,443.5 271,446.5C 270.667,445.5 270.333,444.5 270,443.5C 267,446.5 264,449.5 261,452.5C 260.667,451.5 260.333,450.5 260,449.5C 256.667,452.833 253.333,456.167 250,459.5C 249.667,456.833 249.333,454.167 249,451.5C 246.234,454.777 243.067,457.443 239.5,459.5C 236.167,456.833 233.167,453.833 230.5,450.5C 241.08,441.424 251.246,431.758 261,421.5C 261.333,422.5 261.667,423.5 262,424.5C 266,420.5 270,416.5 274,412.5C 274.333,413.833 274.667,415.167 275,416.5C 278.667,412.833 282.333,409.167 286,405.5C 286.333,406.5 286.667,407.5 287,408.5C 291,404.5 295,400.5 299,396.5C 299.333,397.833 299.667,399.167 300,400.5C 303.704,396.964 307.204,393.298 310.5,389.5C 313.797,386.704 316.964,383.704 320,380.5C 320.333,383.167 320.667,385.833 321,388.5C 324,385.5 327,382.5 330,379.5C 330.333,380.5 330.667,381.5 331,382.5C 334,379.5 337,376.5 340,373.5C 340.333,374.5 340.667,375.5 341,376.5C 344.036,373.296 347.203,370.296 350.5,367.5C 350.336,370.187 350.503,372.854 351,375.5C 354,372.5 357,369.5 360,366.5C 360.333,367.833 360.667,369.167 361,370.5C 364,367.5 367,364.5 370,361.5C 370.333,362.5 370.667,363.5 371,364.5C 374,361.5 377,358.5 380,355.5C 380.333,358.167 380.667,360.833 381,363.5C 384,360.5 387,357.5 390,354.5C 390.333,355.833 390.667,357.167 391,358.5C 394,355.5 397,352.5 400,349.5C 400.333,352.833 400.667,356.167 401,359.5C 404,356.5 407,353.5 410,350.5C 410.333,351.5 410.667,352.5 411,353.5C 414,350.5 417,347.5 420,344.5C 420.333,347.167 420.667,349.833 421,352.5C 424,349.5 427,346.5 430,343.5C 430.333,344.833 430.667,346.167 431,347.5C 434,344.5 437,341.5 440,338.5C 440.497,341.146 440.664,343.813 440.5,346.5 Z"/></g>
<g><path style="opacity:1" fill="#66b4d2" d="M 329.5,300.5 C 322.018,301.492 314.352,301.825 306.5,301.5C 286.167,301.5 265.833,301.5 245.5,301.5C 245.5,317.5 245.5,333.5 245.5,349.5C 245.5,358.5 245.5,367.5 245.5,376.5C 245.821,382.026 245.488,387.36 244.5,392.5C 244.5,361.833 244.5,331.167 244.5,300.5C 272.833,300.5 301.167,300.5 329.5,300.5 Z"/></g>
<g><path style="opacity:0.994" fill="#0094d6" d="M 491.5,346.5 C 488.363,354.576 485.03,362.576 481.5,370.5C 480.883,370.389 480.383,370.056 480,369.5C 477,372.5 474,375.5 471,378.5C 470.667,377.167 470.333,375.833 470,374.5C 467,377.5 464,380.5 461,383.5C 460.667,381.167 460.333,378.833 460,376.5C 457,379.5 454,382.5 451,385.5C 450.667,382.833 450.333,380.167 450,377.5C 447,380.5 444,383.5 441,386.5C 440.667,385.167 440.333,383.833 440,382.5C 437,385.5 434,388.5 431,391.5C 430.667,388.833 430.333,386.167 430,383.5C 427,386.5 424,389.5 421,392.5C 420.667,391.5 420.333,390.5 420,389.5C 417,392.5 414,395.5 411,398.5C 410.503,395.854 410.336,393.187 410.5,390.5C 411.341,389.991 411.841,390.657 412,392.5C 416,388.5 420,384.5 424,380.5C 424.333,381.833 424.667,383.167 425,384.5C 428.667,380.833 432.333,377.167 436,373.5C 436.333,374.5 436.667,375.5 437,376.5C 441,372.5 445,368.5 449,364.5C 449.333,367.167 449.667,369.833 450,372.5C 453.667,368.833 457.333,365.167 461,361.5C 461.333,362.833 461.667,364.167 462,365.5C 466,361.5 470,357.5 474,353.5C 474.333,354.5 474.667,355.5 475,356.5C 478.667,352.833 482.333,349.167 486,345.5C 486.333,346.833 486.667,348.167 487,349.5C 488.129,347.859 489.629,346.859 491.5,346.5 Z"/></g>
<g><path style="opacity:1" fill="#0098d7" d="M 481.5,370.5 C 478.404,376.367 475.071,382.033 471.5,387.5C 468.203,390.296 465.036,393.296 462,396.5C 461.667,393.833 461.333,391.167 461,388.5C 457.333,392.167 453.667,395.833 450,399.5C 449.667,398.167 449.333,396.833 449,395.5C 445,399.5 441,403.5 437,407.5C 436.667,406.5 436.333,405.5 436,404.5C 432.333,408.167 428.667,411.833 425,415.5C 424.667,414.5 424.333,413.5 424,412.5C 420,416.5 416,420.5 412,424.5C 411.667,423.167 411.333,421.833 411,420.5C 407.333,424.167 403.667,427.833 400,431.5C 399.667,430.5 399.333,429.5 399,428.5C 395,432.5 391,436.5 387,440.5C 386.667,439.167 386.333,437.833 386,436.5C 382.333,440.167 378.667,443.833 375,447.5C 374.667,446.5 374.333,445.5 374,444.5C 370,448.5 366,452.5 362,456.5C 361.667,455.167 361.333,453.833 361,452.5C 357.631,456.037 354.131,459.371 350.5,462.5C 350.649,461.448 350.483,460.448 350,459.5C 347,462.5 344,465.5 341,468.5C 340.667,467.167 340.333,465.833 340,464.5C 337,467.5 334,470.5 331,473.5C 330.667,470.833 330.333,468.167 330,465.5C 327,468.5 324,471.5 321,474.5C 320.667,473.5 320.333,472.5 320,471.5C 317,474.5 314,477.5 311,480.5C 310.667,479.5 310.333,478.5 310,477.5C 307,480.5 304,483.5 301,486.5C 300.667,483.833 300.333,481.167 300,478.5C 297,481.5 294,484.5 291,487.5C 290.667,486.167 290.333,484.833 290,483.5C 287,486.5 284,489.5 281,492.5C 280.667,491.5 280.333,490.5 280,489.5C 278.296,491.373 276.463,493.04 274.5,494.5C 270.833,491.5 267.5,488.167 264.5,484.5C 267.797,481.704 270.964,478.704 274,475.5C 274.333,476.5 274.667,477.5 275,478.5C 278.667,474.833 282.333,471.167 286,467.5C 286.333,469.5 286.667,471.5 287,473.5C 291,469.5 295,465.5 299,461.5C 299.333,462.5 299.667,463.5 300,464.5C 303.667,460.833 307.333,457.167 311,453.5C 311.333,454.833 311.667,456.167 312,457.5C 316,453.5 320,449.5 324,445.5C 324.333,446.5 324.667,447.5 325,448.5C 328.667,444.833 332.333,441.167 336,437.5C 336.333,438.833 336.667,440.167 337,441.5C 341,437.5 345,433.5 349,429.5C 349.333,430.5 349.667,431.5 350,432.5C 353.667,428.833 357.333,425.167 361,421.5C 361.333,422.833 361.667,424.167 362,425.5C 366,421.5 370,417.5 374,413.5C 374.333,414.5 374.667,415.5 375,416.5C 378.667,412.833 382.333,409.167 386,405.5C 386.333,406.5 386.667,407.5 387,408.5C 388.376,407.295 389.542,405.962 390.5,404.5C 393.797,401.704 396.964,398.704 400,395.5C 400.333,396.833 400.667,398.167 401,399.5C 404.036,396.296 407.203,393.296 410.5,390.5C 410.336,393.187 410.503,395.854 411,398.5C 414,395.5 417,392.5 420,389.5C 420.333,390.5 420.667,391.5 421,392.5C 424,389.5 427,386.5 430,383.5C 430.333,386.167 430.667,388.833 431,391.5C 434,388.5 437,385.5 440,382.5C 440.333,383.833 440.667,385.167 441,386.5C 444,383.5 447,380.5 450,377.5C 450.333,380.167 450.667,382.833 451,385.5C 454,382.5 457,379.5 460,376.5C 460.333,378.833 460.667,381.167 461,383.5C 464,380.5 467,377.5 470,374.5C 470.333,375.833 470.667,377.167 471,378.5C 474,375.5 477,372.5 480,369.5C 480.383,370.056 480.883,370.389 481.5,370.5 Z"/></g>
<g><path style="opacity:1" fill="#0190c5" d="M 310.5,389.5 C 307.204,393.298 303.704,396.964 300,400.5C 299.667,399.167 299.333,397.833 299,396.5C 295,400.5 291,404.5 287,408.5C 286.667,407.5 286.333,406.5 286,405.5C 282.333,409.167 278.667,412.833 275,416.5C 274.667,415.167 274.333,413.833 274,412.5C 270,416.5 266,420.5 262,424.5C 261.667,423.5 261.333,422.5 261,421.5C 251.246,431.758 241.08,441.424 230.5,450.5C 226.167,446.5 221.833,442.5 217.5,438.5C 216.833,437.5 216.167,436.5 215.5,435.5C 220.465,431.037 225.298,426.37 230,421.5C 230.333,422.5 230.667,423.5 231,424.5C 233.37,421.961 235.87,419.628 238.5,417.5C 238.336,420.187 238.503,422.854 239,425.5C 242.333,422.167 245.667,418.833 249,415.5C 249.333,416.5 249.667,417.5 250,418.5C 253.333,415.167 256.667,411.833 260,408.5C 260.333,409.833 260.667,411.167 261,412.5C 264,409.5 267,406.5 270,403.5C 270.333,404.5 270.667,405.5 271,406.5C 274,403.5 277,400.5 280,397.5C 280.333,398.833 280.667,400.167 281,401.5C 284,398.5 287,395.5 290,392.5C 290.333,395.167 290.667,397.833 291,400.5C 294,397.5 297,394.5 300,391.5C 300.333,392.5 300.667,393.5 301,394.5C 304,391.5 307,388.5 310,385.5C 310.49,386.793 310.657,388.127 310.5,389.5 Z"/></g>
<g><path style="opacity:0.988" fill="#009adc" d="M 471.5,387.5 C 459.586,409.429 444.252,428.762 425.5,445.5C 424.043,443.248 422.543,443.581 421,446.5C 420.667,443.833 420.333,441.167 420,438.5C 417,441.5 414,444.5 411,447.5C 410.667,444.833 410.333,442.167 410,439.5C 407,442.5 404,445.5 401,448.5C 400.667,447.167 400.333,445.833 400,444.5C 397,447.5 394,450.5 391,453.5C 390.667,451.167 390.333,448.833 390,446.5C 387,449.5 384,452.5 381,455.5C 380.667,454.167 380.333,452.833 380,451.5C 377,454.5 374,457.5 371,460.5C 370.667,457.833 370.333,455.167 370,452.5C 367,455.5 364,458.5 361,461.5C 360.667,460.5 360.333,459.5 360,458.5C 357,461.5 354,464.5 351,467.5C 350.506,465.866 350.34,464.199 350.5,462.5C 354.131,459.371 357.631,456.037 361,452.5C 361.333,453.833 361.667,455.167 362,456.5C 366,452.5 370,448.5 374,444.5C 374.333,445.5 374.667,446.5 375,447.5C 378.667,443.833 382.333,440.167 386,436.5C 386.333,437.833 386.667,439.167 387,440.5C 391,436.5 395,432.5 399,428.5C 399.333,429.5 399.667,430.5 400,431.5C 403.667,427.833 407.333,424.167 411,420.5C 411.333,421.833 411.667,423.167 412,424.5C 416,420.5 420,416.5 424,412.5C 424.333,413.5 424.667,414.5 425,415.5C 428.667,411.833 432.333,408.167 436,404.5C 436.333,405.5 436.667,406.5 437,407.5C 441,403.5 445,399.5 449,395.5C 449.333,396.833 449.667,398.167 450,399.5C 453.667,395.833 457.333,392.167 461,388.5C 461.333,391.167 461.667,393.833 462,396.5C 465.036,393.296 468.203,390.296 471.5,387.5 Z"/></g>
<g><path style="opacity:1" fill="#078ab8" d="M 228.5,393.5 C 221.536,400.965 214.369,408.298 207,415.5C 206.501,419.152 206.335,422.818 206.5,426.5C 198.5,418.833 190.5,411.167 182.5,403.5C 179.704,400.203 176.704,397.036 173.5,394C 191.83,393.5 210.164,393.333 228.5,393.5 Z"/></g>
<g><path style="opacity:1" fill="#0097d1" d="M 390.5,404.5 C 389.542,405.962 388.376,407.295 387,408.5C 386.667,407.5 386.333,406.5 386,405.5C 382.333,409.167 378.667,412.833 375,416.5C 374.667,415.5 374.333,414.5 374,413.5C 370,417.5 366,421.5 362,425.5C 361.667,424.167 361.333,422.833 361,421.5C 357.333,425.167 353.667,428.833 350,432.5C 349.667,431.5 349.333,430.5 349,429.5C 345,433.5 341,437.5 337,441.5C 336.667,440.167 336.333,438.833 336,437.5C 332.333,441.167 328.667,444.833 325,448.5C 324.667,447.5 324.333,446.5 324,445.5C 320,449.5 316,453.5 312,457.5C 311.667,456.167 311.333,454.833 311,453.5C 307.333,457.167 303.667,460.833 300,464.5C 299.667,463.5 299.333,462.5 299,461.5C 295,465.5 291,469.5 287,473.5C 286.667,471.5 286.333,469.5 286,467.5C 282.333,471.167 278.667,474.833 275,478.5C 274.667,477.5 274.333,476.5 274,475.5C 270.964,478.704 267.797,481.704 264.5,484.5C 255.833,476.5 247.5,468.167 239.5,459.5C 243.067,457.443 246.234,454.777 249,451.5C 249.333,454.167 249.667,456.833 250,459.5C 253.333,456.167 256.667,452.833 260,449.5C 260.333,450.5 260.667,451.5 261,452.5C 264,449.5 267,446.5 270,443.5C 270.333,444.5 270.667,445.5 271,446.5C 274,443.5 277,440.5 280,437.5C 280.333,438.833 280.667,440.167 281,441.5C 284,438.5 287,435.5 290,432.5C 290.333,435.167 290.667,437.833 291,440.5C 294,437.5 297,434.5 300,431.5C 300.333,432.5 300.667,433.5 301,434.5C 304.036,431.296 307.203,428.296 310.5,425.5C 310.343,426.873 310.51,428.207 311,429.5C 314,426.5 317,423.5 320,420.5C 320.333,423.167 320.667,425.833 321,428.5C 324,425.5 327,422.5 330,419.5C 330.333,420.5 330.667,421.5 331,422.5C 334,419.5 337,416.5 340,413.5C 340.333,416.833 340.667,420.167 341,423.5C 344,420.5 347,417.5 350,414.5C 350.333,415.833 350.667,417.167 351,418.5C 354,415.5 357,412.5 360,409.5C 360.333,410.5 360.667,411.5 361,412.5C 364,409.5 367,406.5 370,403.5C 370.333,406.167 370.667,408.833 371,411.5C 374,408.5 377,405.5 380,402.5C 380.333,403.833 380.667,405.167 381,406.5C 384,403.5 387,400.5 390,397.5C 390.497,399.81 390.663,402.143 390.5,404.5 Z"/></g>
<g><path style="opacity:0.996" fill="#09b2ee" d="M 182.5,403.5 C 190.5,411.167 198.5,418.833 206.5,426.5C 209.167,429.833 212.167,432.833 215.5,435.5C 216.167,436.5 216.833,437.5 217.5,438.5C 217.831,462.006 217.498,485.339 216.5,508.5C 204.969,507.117 193.635,504.784 182.5,501.5C 182.5,468.833 182.5,436.167 182.5,403.5 Z"/></g>
<g><path style="opacity:0.996" fill="#009edd" d="M 425.5,445.5 C 386.765,481.026 341.099,502.36 288.5,509.5C 283.833,504.5 279.167,499.5 274.5,494.5C 276.463,493.04 278.296,491.373 280,489.5C 280.333,490.5 280.667,491.5 281,492.5C 284,489.5 287,486.5 290,483.5C 290.333,484.833 290.667,486.167 291,487.5C 294,484.5 297,481.5 300,478.5C 300.333,481.167 300.667,483.833 301,486.5C 304,483.5 307,480.5 310,477.5C 310.333,478.5 310.667,479.5 311,480.5C 314,477.5 317,474.5 320,471.5C 320.333,472.5 320.667,473.5 321,474.5C 324,471.5 327,468.5 330,465.5C 330.333,468.167 330.667,470.833 331,473.5C 334,470.5 337,467.5 340,464.5C 340.333,465.833 340.667,467.167 341,468.5C 344,465.5 347,462.5 350,459.5C 350.483,460.448 350.649,461.448 350.5,462.5C 350.34,464.199 350.506,465.866 351,467.5C 354,464.5 357,461.5 360,458.5C 360.333,459.5 360.667,460.5 361,461.5C 364,458.5 367,455.5 370,452.5C 370.333,455.167 370.667,457.833 371,460.5C 374,457.5 377,454.5 380,451.5C 380.333,452.833 380.667,454.167 381,455.5C 384,452.5 387,449.5 390,446.5C 390.333,448.833 390.667,451.167 391,453.5C 394,450.5 397,447.5 400,444.5C 400.333,445.833 400.667,447.167 401,448.5C 404,445.5 407,442.5 410,439.5C 410.333,442.167 410.667,444.833 411,447.5C 414,444.5 417,441.5 420,438.5C 420.333,441.167 420.667,443.833 421,446.5C 422.543,443.581 424.043,443.248 425.5,445.5 Z"/></g>
<g><path style="opacity:0.993" fill="#03afed" d="M 217.5,438.5 C 221.833,442.5 226.167,446.5 230.5,450.5C 233.167,453.833 236.167,456.833 239.5,459.5C 247.5,468.167 255.833,476.5 264.5,484.5C 267.5,488.167 270.833,491.5 274.5,494.5C 279.167,499.5 283.833,504.5 288.5,509.5C 285.059,510.097 281.725,510.763 278.5,511.5C 263.167,511.5 247.833,511.5 232.5,511.5C 227.144,510.645 221.811,509.645 216.5,508.5C 217.498,485.339 217.831,462.006 217.5,438.5 Z"/></g>
</svg>
